<svg width="25" height="24" viewBox="0 0 25 24" fill="none" xmlns="http://www.w3.org/2000/svg">
<path d="M7.7 12C10.0213 12 11.9 9.65156 11.9 6.75C11.9 3.84844 10.0213 1.5 7.7 1.5C5.37875 1.5 3.5 3.84844 3.5 6.75C3.5 9.65156 5.37875 12 7.7 12ZM10.58 13.5H10.2688C9.48875 13.9688 8.6225 14.25 7.7 14.25C6.7775 14.25 5.915 13.9688 5.13125 13.5H4.82C2.435 13.5 0.5 15.9188 0.5 18.9V20.25C0.5 21.4922 1.30625 22.5 2.3 22.5H13.1C14.0938 22.5 14.9 21.4922 14.9 20.25V18.9C14.9 15.9188 12.965 13.5 10.58 13.5ZM18.5 12C20.4875 12 22.1 9.98438 22.1 7.5C22.1 5.01562 20.4875 3 18.5 3C16.5125 3 14.9 5.01562 14.9 7.5C14.9 9.98438 16.5125 12 18.5 12ZM20.3 13.5H20.1575C19.6363 13.725 19.085 13.875 18.5 13.875C17.915 13.875 17.3638 13.725 16.8425 13.5H16.7C15.935 13.5 15.23 13.7766 14.6112 14.2219C15.5262 15.4547 16.1 17.0906 16.1 18.9V20.7C16.1 20.8031 16.0813 20.9016 16.0775 21H22.7C23.6938 21 24.5 19.9922 24.5 18.75C24.5 15.8484 22.6213 13.5 20.3 13.5Z" fill="#FAD210"/>
</svg>
