<svg width="25" height="24" viewBox="0 0 25 24" fill="none" xmlns="http://www.w3.org/2000/svg">
<path d="M17.5 4C18.606 4 19.455 4.843 20.084 5.75L20.297 6.071L20.492 6.391C20.554 6.49567 20.6133 6.59833 20.67 6.699C21.457 8.106 22.142 9.943 22.595 11.758C23.045 13.559 23.294 15.44 23.135 16.919C22.975 18.404 22.21 20 20.5 20C18.966 20 17.757 19.18 16.775 18.379L15.665 17.448C14.742 16.692 13.732 16 12.5 16C11.268 16 10.257 16.692 9.336 17.448L8.226 18.378C7.242 19.18 6.033 20 4.5 20C2.789 20 2.024 18.404 1.865 16.919C1.707 15.439 1.955 13.559 2.405 11.758C2.858 9.943 3.543 8.106 4.33 6.699L4.508 6.39L4.703 6.071L4.916 5.75C5.545 4.843 6.394 4 7.5 4C8.01 4 8.517 4.124 9.015 4.27L9.608 4.452C9.706 4.482 9.80333 4.51067 9.9 4.538C10.765 4.786 11.65 5 12.5 5C13.35 5 14.235 4.786 15.1 4.538L15.985 4.271C16.483 4.124 16.99 4 17.5 4ZM9 8C8.33696 8 7.70108 8.26339 7.23223 8.73223C6.76339 9.20107 6.5 9.83696 6.5 10.5C6.5 11.163 6.76339 11.7989 7.23223 12.2678C7.70108 12.7366 8.33696 13 9 13C9.66304 13 10.2989 12.7366 10.7678 12.2678C11.2366 11.7989 11.5 11.163 11.5 10.5C11.5 9.83696 11.2366 9.20107 10.7678 8.73223C10.2989 8.26339 9.66304 8 9 8ZM16 8C15.7348 8 15.4804 8.10536 15.2929 8.29289C15.1054 8.48043 15 8.73478 15 9V9.5H14.5C14.2348 9.5 13.9804 9.60536 13.7929 9.79289C13.6054 9.98043 13.5 10.2348 13.5 10.5C13.5 10.7652 13.6054 11.0196 13.7929 11.2071C13.9804 11.3946 14.2348 11.5 14.5 11.5H15V12C15 12.2652 15.1054 12.5196 15.2929 12.7071C15.4804 12.8946 15.7348 13 16 13C16.2652 13 16.5196 12.8946 16.7071 12.7071C16.8946 12.5196 17 12.2652 17 12V11.5H17.5C17.7652 11.5 18.0196 11.3946 18.2071 11.2071C18.3946 11.0196 18.5 10.7652 18.5 10.5C18.5 10.2348 18.3946 9.98043 18.2071 9.79289C18.0196 9.60536 17.7652 9.5 17.5 9.5H17V9C17 8.73478 16.8946 8.48043 16.7071 8.29289C16.5196 8.10536 16.2652 8 16 8ZM9 10C9.13261 10 9.25979 10.0527 9.35356 10.1464C9.44732 10.2402 9.5 10.3674 9.5 10.5C9.5 10.6326 9.44732 10.7598 9.35356 10.8536C9.25979 10.9473 9.13261 11 9 11C8.86739 11 8.74022 10.9473 8.64645 10.8536C8.55268 10.7598 8.5 10.6326 8.5 10.5C8.5 10.3674 8.55268 10.2402 8.64645 10.1464C8.74022 10.0527 8.86739 10 9 10Z" fill="#FAD210"/>
</svg>
