<svg width="24" height="24" viewBox="0 0 24 24" fill="none" xmlns="http://www.w3.org/2000/svg">
<path d="M12 23.25C18.2132 23.25 23.25 18.2132 23.25 12C23.25 5.7868 18.2132 0.75 12 0.75C5.7868 0.75 0.75 5.7868 0.75 12C0.75 18.2132 5.7868 23.25 12 23.25Z" fill="url(#paint0_radial_10_162)"/>
<path d="M12 23.25C18.2132 23.25 23.25 18.2132 23.25 12C23.25 5.7868 18.2132 0.75 12 0.75C5.7868 0.75 0.75 5.7868 0.75 12C0.75 18.2132 5.7868 23.25 12 23.25Z" fill="url(#paint1_radial_10_162)"/>
<path d="M16.0294 11.2144C16.3163 11.4488 16.8131 11.475 17.2331 11.2969C17.7319 11.0831 17.9588 10.7531 17.9663 10.2375C17.9738 9.59813 17.4413 8.91563 16.3875 8.84813C14.6513 8.7375 13.9838 10.2938 13.965 10.3519C13.9238 10.4738 13.9838 10.6481 14.3306 10.3744C15.3863 9.54 15.765 9.67875 15.765 9.67875C15.765 9.67875 15.1575 10.4981 16.0294 11.2144ZM8.11126 11.2144C8.39813 11.4488 8.89501 11.475 9.31501 11.2969C9.81376 11.0831 10.0406 10.7531 10.0481 10.2375C10.0556 9.59813 9.52313 8.91563 8.46938 8.84813C6.73313 8.7375 6.06563 10.2938 6.04688 10.3519C6.00563 10.4738 6.06563 10.6481 6.41251 10.3744C7.46813 9.54 7.84688 9.67875 7.84688 9.67875C7.84688 9.67875 7.23938 10.4981 8.11126 11.2144ZM15.0075 14.6138L14.985 14.6006C14.8725 14.5331 14.7244 14.5463 14.625 14.6306C14.3306 14.8819 13.11 15.3469 11.9981 15.3694C10.8863 15.3469 9.66563 14.8819 9.37126 14.6306C9.27188 14.5463 9.12563 14.5313 9.01126 14.6006L8.98876 14.6138C8.84626 14.7 8.82001 14.8763 8.91938 15.0038C9.30563 15.4875 10.3294 16.215 11.9963 16.2394C13.6631 16.2169 14.685 15.4875 15.0731 15.0038C15.1781 14.8763 15.15 14.7 15.0075 14.6138Z" fill="#212121"/>
<path d="M11.5875 17.4825C11.4525 17.5219 11.2931 17.6231 11.3269 17.76C11.3381 17.805 11.3681 17.8406 11.4019 17.8725C11.5087 17.97 11.6475 18.0263 11.7862 18.0619C12.1781 18.1613 12.6037 18.0938 12.9581 17.9025C13.1625 17.7919 13.815 17.3044 13.6706 16.9969C13.5544 16.7475 13.1062 17.0944 12.9319 17.1675C12.4987 17.3494 12.0375 17.3531 11.5875 17.4825ZM11.0025 13.5488C10.7325 13.245 10.9819 13.0875 11.2781 13.1775C11.6531 13.2919 12.2531 13.2375 12.4069 12.9C12.7031 12.2513 12.3337 11.8856 11.8744 10.7644C11.3944 9.5925 11.9962 8.31563 12.69 8.25C13.2469 8.1975 13.0612 8.48813 12.8869 8.61188C12.5456 8.85563 12.1875 9.66188 12.7369 10.5656C13.6725 12.1013 13.7494 12.8381 13.1906 13.5619C12.8437 14.0119 11.7619 14.4038 11.0025 13.5488Z" fill="#274C5E"/>
<path opacity="0.3" d="M15.4818 13.6725C15.7725 14.3756 16.9125 14.5706 18.0281 14.1075C19.1437 13.6463 19.8131 12.7013 19.5225 12C19.2318 11.2969 18.0918 11.1019 16.9762 11.565C15.8606 12.0263 15.1912 12.9694 15.4818 13.6725Z" fill="url(#paint2_radial_10_162)"/>
<path opacity="0.3" d="M9.26818 13.6725C8.97755 14.3756 7.83755 14.5706 6.72193 14.1075C5.6063 13.6463 4.93693 12.7013 5.22755 12C5.51818 11.2969 6.65818 11.1019 7.7738 11.565C8.88943 12.0263 9.5588 12.9694 9.26818 13.6725Z" fill="url(#paint3_radial_10_162)"/>
<defs>
<radialGradient id="paint0_radial_10_162" cx="0" cy="0" r="1" gradientUnits="userSpaceOnUse" gradientTransform="translate(11.9156 10.5139) scale(12.876)">
<stop offset="0.306" stop-color="#6092AB"/>
<stop offset="0.472" stop-color="#5989A1"/>
<stop offset="0.749" stop-color="#457287"/>
<stop offset="0.843" stop-color="#3D687D"/>
</radialGradient>
<radialGradient id="paint1_radial_10_162" cx="0" cy="0" r="1" gradientUnits="userSpaceOnUse" gradientTransform="translate(11.9441 9.40406) scale(16.0508)">
<stop offset="0.762" stop-color="#B2EBF2" stop-opacity="0"/>
<stop offset="1" stop-color="#E0F7FA"/>
</radialGradient>
<radialGradient id="paint2_radial_10_162" cx="0" cy="0" r="1" gradientUnits="userSpaceOnUse" gradientTransform="translate(17.2298 11.7823) rotate(-23.0654) scale(3.06952 2.45328)">
<stop stop-color="white"/>
<stop offset="1" stop-color="#FFF9B9" stop-opacity="0"/>
</radialGradient>
<radialGradient id="paint3_radial_10_162" cx="0" cy="0" r="1" gradientUnits="userSpaceOnUse" gradientTransform="translate(7.6047 11.8475) rotate(-156.935) scale(3.02545 2.41806)">
<stop stop-color="white"/>
<stop offset="1" stop-color="#FFF9B9" stop-opacity="0"/>
</radialGradient>
</defs>
</svg>
