<svg width="25" height="24" viewBox="0 0 25 24" fill="none" xmlns="http://www.w3.org/2000/svg">
<path d="M20.75 6H5.75C5.55109 6 5.36032 5.92098 5.21967 5.78033C5.07902 5.63968 5 5.44891 5 5.25C5 5.05109 5.07902 4.86032 5.21967 4.71967C5.36032 4.57902 5.55109 4.5 5.75 4.5H18.5C18.6989 4.5 18.8897 4.42098 19.0303 4.28033C19.171 4.13968 19.25 3.94891 19.25 3.75C19.25 3.55109 19.171 3.36032 19.0303 3.21967C18.8897 3.07902 18.6989 3 18.5 3H5.75C5.15326 3 4.58097 3.23705 4.15901 3.65901C3.73705 4.08097 3.5 4.65326 3.5 5.25V17.25C3.5 17.8467 3.73705 18.419 4.15901 18.841C4.58097 19.2629 5.15326 19.5 5.75 19.5H20.75C21.1478 19.5 21.5294 19.342 21.8107 19.0607C22.092 18.7794 22.25 18.3978 22.25 18V7.5C22.25 7.10218 22.092 6.72064 21.8107 6.43934C21.5294 6.15804 21.1478 6 20.75 6ZM17.375 13.5C17.1525 13.5 16.935 13.434 16.75 13.3104C16.565 13.1868 16.4208 13.0111 16.3356 12.8055C16.2505 12.6 16.2282 12.3738 16.2716 12.1555C16.315 11.9373 16.4222 11.7368 16.5795 11.5795C16.7368 11.4222 16.9373 11.315 17.1555 11.2716C17.3738 11.2282 17.6 11.2505 17.8055 11.3356C18.0111 11.4208 18.1868 11.565 18.3104 11.75C18.434 11.935 18.5 12.1525 18.5 12.375C18.5 12.6734 18.3815 12.9595 18.1705 13.1705C17.9595 13.3815 17.6734 13.5 17.375 13.5Z" fill="#FAD210"/>
</svg>
